# xmcd
#
# Track frame offsets:
#	150
#	17412
#	34400
#	49720
#	65175
#	75492
#	87712
#	100515
#	111985
#	126257
#	143975
#	161212
#	173542
#	184127
#	197195
#	212035
#
# Disc length: 2971 seconds
#
# Revision: 0
# Processed by: cddbd v1.5.2PL0 Copyright (c) Steve Scherf et al.
# Submitted via: dBpowerAMP V4.0
#
DISCID=e50b9910
DTITLE=Various Artist - Champagne Country
DYEAR=1900
DGENRE=Country
TTITLE0=Willie Nelson - Stardust
TTITLE1=Crystal Gayle - Miss The Mississippi And You
TTITLE2=Kris Kristofferson - For The Good Times
TTITLE3=Tammy Wynette - Sweet Musuc Man
TTITLE4=Willie Nelson And Leon Russell - Always
TTITLE5=Charlie Rich - The Most Beautiful Girl
TTITLE6=George Jones And Emmylou Harris - Here We Are
TTITLE7=Johhny Cash - A Thing Called Love
TTITLE8=Kris Kristofferson and Rita Collidge - The Things I Might Have Been
TTITLE9=Tanya Tucker - The Best Of My Love
TTITLE10=Willie Nelson And Ray Price - Faded Love
TTITLE11=Charlie Rich -  A Very Special Love Song
TTITLE12=George Jones And Tammy Wynette - Hear You
TTITLE13=Bobby Goldsboro - Me And The Elephant
TTITLE14=Janie Fricke - Please Help Me I'm Falling (In Love With You)
TTITLE15=Marty Robbins - I Don't Know Why
EXTD=Pickwick Music PWKS 566
EXTT0=
EXTT1=
EXTT2=
EXTT3=
EXTT4=
EXTT5=
EXTT6=
EXTT7=
EXTT8=
EXTT9=
EXTT10=
EXTT11=
EXTT12=
EXTT13=
EXTT14=
EXTT15=
PLAYORDER=
